<?xml version="1.0" encoding="UTF-8"?><svg id="Layer_2" xmlns="http://www.w3.org/2000/svg" viewBox="0 0 276.82 274.11"><defs><style>.cls-1{fill:none;}.cls-2{fill:#fbfafc;}</style></defs><g id="Layer_1-2"><g><g><path class="cls-2" d="M158.27,155.26c-5.35,6.25-13.26,9.99-21.61,9.99-15.66,0-28.4-12.73-28.4-28.38s12.74-28.38,28.4-28.38c.34,0,.67,.03,1,.04-.4,.34-.79,.69-1.16,1.06l-.2,.22h0c-2.94,3.06-4.76,7.2-4.76,11.76,0,9.35,7.61,16.96,16.97,16.96s16.97-7.61,16.97-16.96c0-6.23-3.39-11.67-8.41-14.62l-.08-.05c-.6-.41-1.21-.78-1.83-1.15l18.13-13.27h-13.19l-13.22,9.6c-3.29-.96-6.72-1.47-10.22-1.47-20.02,0-36.31,16.28-36.31,36.28s16.29,36.28,36.31,36.28c12.8,0,24.8-6.85,31.3-17.89h-.02s-9.67-.01-9.67-.01Zm-15.73-40.59h-.03l.32-.23c.22-.17,.44-.33,.68-.48l5.03-3.58,5.04,3.58c.23,.15,.45,.31,.67,.48l.33,.23h-.03c2.03,1.71,3.32,4.26,3.32,7.12,0,5.14-4.17,9.31-9.32,9.31s-9.32-4.17-9.32-9.31c0-2.86,1.29-5.41,3.32-7.12Z"/><g><path class="cls-2" d="M155.81,71.39c-6.85-1.79-10.36-7.87-8.6-14.6,1.75-6.71,7.79-10.32,14.65-8.53,5.58,1.46,8.96,5.8,8.99,11.24l-4.02-1.05c-.42-3.23-2.55-5.73-5.9-6.61-4.68-1.22-8.7,1.37-9.89,5.94-1.19,4.57,1.03,8.83,5.71,10.05,3.35,.88,6.39-.21,8.38-2.85l4.02,1.05c-2.75,4.75-7.77,6.8-13.32,5.35Z"/><path class="cls-2" d="M176.8,65.97c4.35-5.55,11.39-6.27,16.95-1.92,5.56,4.35,6.59,11.38,2.24,16.93-4.36,5.58-11.42,6.25-16.97,1.9-5.56-4.35-6.58-11.33-2.22-16.91Zm16.08,12.58c2.96-3.79,2.4-8.6-1.42-11.58-3.81-2.98-8.59-2.36-11.56,1.43-2.98,3.81-2.44,8.6,1.37,11.59,3.81,2.98,8.62,2.38,11.6-1.44Z"/><path class="cls-2" d="M199.3,93.77l-5.84,3.57-2.03-3.32,17-10.4c1.68-1.03,3.61-.56,4.64,1.12l3.2,5.23c2.56,4.18,1.68,8.99-2.5,11.55-4.21,2.57-8.97,1.25-11.55-2.96l-2.93-4.79Zm3.14-1.92l2.93,4.79c1.42,2.32,4.03,2.93,6.35,1.51,2.27-1.39,2.77-4.01,1.4-6.25l-2.45-4c-.28-.46-.82-.59-1.27-.31l-6.96,4.26Z"/><path class="cls-2" d="M205.75,129.42l-2.92-12.61c-.5-2.15,.5-3.8,2.69-4.3l15.72-3.64c2.16-.5,3.8,.53,4.3,2.69l2.88,12.46-3.61,.84-2.61-11.27c-.13-.55-.56-.82-1.08-.7l-4.86,1.12,2.69,11.62-3.49,.81-2.69-11.62-5.39,1.25c-.55,.13-.82,.56-.69,1.11l2.64,11.41-3.58,.83Z"/><path class="cls-2" d="M205.78,138.07l.48-3.73,18.67,2.41c2.9,.38,4.38,2.22,4.05,4.83-.26,1.99-1.3,3.09-4.25,3.94l-15.86,5c-.47,.18-.74,.36-.78,.71-.05,.38,.15,.68,.63,.74l18.46,2.39-.49,3.76-18.67-2.42c-2.93-.38-4.39-2.16-4.05-4.77,.26-1.99,1.34-3.17,4.23-4.03l15.86-5c.47-.15,.77-.32,.81-.71,.05-.39-.18-.69-.63-.74l-18.46-2.39Z"/><path class="cls-2" d="M202.28,180.09l6.3-10.89-8.92-5.16,1.95-3.36,20.18,11.68-1.95,3.36-8.07-4.67-6.3,10.89,8.07,4.67-1.95,3.36-20.18-11.68,1.95-3.36,8.92,5.17Z"/><path class="cls-2" d="M180.18,196.35l8.11-6.51-2.1-6.2,3.12-2.5,6.78,21.11c.64,1.94,.48,3.14-.98,4.31-1.54,1.23-2.84,1.24-4.63,.19l-19.16-11.18,3.22-2.58,5.65,3.36Zm9.36-2.76l-5.94,4.77,8.5,5.06c.2,.11,.34,.14,.51,.01,.14-.11,.16-.28,.1-.5l-3.16-9.34Z"/><path class="cls-2" d="M151,212.44c-2.02-6.23,1.85-10.94,7.48-12.77,6.77-2.2,13.16,.85,15.35,7.58,2.17,6.68-1,12.9-7.71,15.07-5.37,1.75-10.42,.05-13.24-4.18l3.95-1.28c2.06,2.38,5.12,2.89,8.13,1.91,4.58-1.49,6.59-5.75,5.11-10.3-1.52-4.66-5.86-6.8-10.49-5.3-3.95,1.28-5.75,4.26-5.01,6.53l.05,.14c.11,.34,.31,.47,.65,.35l6.96-2.26,1.08,3.33-9.61,3.12c-1.14,.37-2.13-.19-2.5-1.32l-.2-.62Z"/><path class="cls-2" d="M126.77,202.66l12.93,.51c2.21,.09,3.53,1.48,3.44,3.72l-.63,16.12c-.09,2.21-1.52,3.53-3.73,3.44l-12.78-.5,.15-3.7,11.56,.45c.57,.02,.94-.32,.96-.86l.2-4.99-11.91-.47,.14-3.58,11.91,.47,.22-5.52c.02-.57-.32-.94-.89-.96l-11.7-.46,.14-3.67Z"/><path class="cls-2" d="M118.42,200.39l3.47,1.46-7.3,17.36c-1.14,2.7-3.31,3.63-5.74,2.61-1.85-.78-2.63-2.08-2.67-5.14l-.59-16.62c-.05-.51-.15-.81-.48-.95-.36-.15-.7-.03-.88,.41l-7.22,17.16-3.5-1.47,7.3-17.36c1.15-2.73,3.26-3.66,5.68-2.63,1.85,.78,2.7,2.14,2.76,5.15l.59,16.62c.02,.49,.11,.82,.47,.97,.36,.15,.71,0,.88-.41l7.22-17.16Z"/><path class="cls-2" d="M83.7,174.44c4.13,5.75,2.95,12.67-2.71,16.73-5.63,4.04-12.59,2.96-16.71-2.79-3.36-4.69-3.19-10.18,.27-14.39l2.42,3.37c-1.74,2.75-1.7,6.04,.32,8.85,2.82,3.93,7.57,4.5,11.41,1.75,3.84-2.75,4.84-7.45,2.02-11.38-2.02-2.82-5.05-3.91-8.26-3.16l-2.42-3.38c5.15-1.89,10.32-.27,13.67,4.39Z"/><path class="cls-2" d="M66.2,149.76l2.66,10.05,6.52,.59,1.02,3.87-22.05-2.36c-2.03-.2-3.06-.83-3.54-2.65-.5-1.91,.02-3.1,1.7-4.31l17.99-12.98,1.05,3.99-5.36,3.8Zm-1.27,9.67l-1.95-7.37-8.07,5.72c-.18,.14-.27,.26-.22,.46,.05,.17,.19,.26,.42,.29l9.82,.9Z"/><path class="cls-2" d="M63.36,128.43l-.49,5.33,8.18,.75-.36,3.87-19.64-1.81c-2.08-.19-3.43-1.82-3.24-3.9l.67-7.26c.41-4.43,3.59-7.65,8.29-7.22,3.51,.32,5.66,3.01,6.39,6.17l9.31-5.24-.42,4.58-8.69,4.72Zm-4.12,4.99l.64-6.96c.2-2.2-1.03-4.12-3.47-4.34-2.47-.23-4.04,1.46-4.24,3.63l-.56,6.04c-.05,.54,.36,.96,.84,1.01l6.79,.62Z"/><path class="cls-2" d="M60.1,98.42l17.86,8.09-1.6,3.54-17.86-8.09-3.24,7.16-3.38-1.53,8.09-17.86,3.38,1.53-3.24,7.16Z"/><path class="cls-2" d="M94.55,84.26l-8.67,9.6c-1.48,1.64-3.4,1.76-5.07,.26l-11.97-10.82c-1.64-1.48-1.74-3.42-.26-5.07l8.57-9.49,2.75,2.48-7.75,8.58c-.38,.42-.35,.93,.04,1.29l3.7,3.35,7.99-8.85,2.66,2.4-7.99,8.85,4.1,3.71c.42,.38,.93,.35,1.31-.07l7.85-8.69,2.73,2.46Z"/><path class="cls-2" d="M101.75,79.57c-1.92,1.15-3.77,.69-4.92-1.24l-10.12-16.93,3.34-1.99,9.6,16.06c.29,.49,.78,.61,1.27,.32l8.62-5.15,1.89,3.16-9.67,5.78Z"/><path class="cls-2" d="M107.49,55.31c-.94-3.01,.56-5.79,3.56-6.72s5.83,.5,6.76,3.51c.94,3.02-.57,5.78-3.58,6.71-2.99,.93-5.81-.49-6.75-3.5Zm9.25-2.88c-.74-2.38-2.97-3.54-5.36-2.79-2.38,.74-3.56,2.96-2.81,5.34,.75,2.41,2.97,3.54,5.35,2.8,2.39-.74,3.58-2.94,2.83-5.34Zm-3.95,2.05l-.93,.29,.65,2.07-1.11,.35-1.43-4.58c-.22-.69,.09-1.33,.78-1.55l1.48-.46c1.13-.35,2.21,.1,2.55,1.21,.29,.92-.09,1.74-.84,2.21l1.98,1.62-1.25,.39-1.87-1.55Zm-1.25-.73l1.52-.47c.5-.15,.75-.61,.59-1.11-.15-.5-.62-.68-1.1-.53l-1.2,.37c-.18,.06-.28,.21-.23,.39l.42,1.34Z"/></g></g><rect class="cls-1" width="276.82" height="274.11"/></g></g></svg>